<svg width="1280" height="720" xmlns="http://www.w3.org/2000/svg" xmlns:xlink="http://www.w3.org/1999/xlink" overflow="hidden"><g><rect x="0" y="0" width="1280" height="720" fill="#FFFFFF"/><path d="M31 324.167C31 314.134 39.1336 306 49.167 306L147.833 306C157.866 306 166 314.134 166 324.167L166 396.833C166 406.866 157.866 415 147.833 415L49.167 415C39.1336 415 31 406.866 31 396.833Z" stroke="#7D0D45" stroke-width="2" stroke-miterlimit="8" fill="#C2146B" fill-rule="evenodd"/><text fill="#FFFFFF" font-family="Arial,Arial_MSFontService,sans-serif" font-weight="400" font-size="16" transform="translate(49.2344 357)">RASPBERRY</text><text fill="#FFFFFF" font-family="Arial,Arial_MSFontService,sans-serif" font-weight="400" font-size="16" transform="translate(90.6144 376)">PI</text><path d="M211 324.167C211 314.134 219.134 306 229.167 306L308.833 306C318.866 306 327 314.134 327 324.167L327 396.833C327 406.866 318.866 415 308.833 415L229.167 415C219.134 415 211 406.866 211 396.833Z" stroke="#13501B" stroke-width="2" stroke-miterlimit="8" fill="#3B7D23" fill-rule="evenodd"/><text fill="#FFFFFF" font-family="Arial,Arial_MSFontService,sans-serif" font-weight="400" font-size="16" transform="translate(239.181 357)">AD</text><text fill="#FFFFFF" font-family="Arial,Arial_MSFontService,sans-serif" font-weight="400" font-size="16" transform="translate(261.348 357)">-</text><text fill="#FFFFFF" font-family="Arial,Arial_MSFontService,sans-serif" font-weight="400" font-size="16" transform="translate(266.681 357)">RPI</text><text fill="#FFFFFF" font-family="Arial,Arial_MSFontService,sans-serif" font-weight="400" font-size="16" transform="translate(293.348 357)">-</text><text fill="#FFFFFF" font-family="Arial,Arial_MSFontService,sans-serif" font-weight="400" font-size="16" transform="translate(226.768 376)">T1LPSE</text><text fill="#FFFFFF" font-family="Arial,Arial_MSFontService,sans-serif" font-weight="400" font-size="16" transform="translate(286.268 376)">-</text><text fill="#FFFFFF" font-family="Arial,Arial_MSFontService,sans-serif" font-weight="400" font-size="16" transform="translate(291.601 376)">SL</text><path d="M412 148.167C412 138.134 420.134 130 430.167 130L577.833 130C587.866 130 596 138.134 596 148.167L596 220.833C596 230.866 587.866 239 577.833 239L430.167 239C420.134 239 412 230.866 412 220.833Z" stroke="#163E64" stroke-width="2" stroke-miterlimit="8" fill="#0070C0" fill-rule="evenodd"/><text fill="#FFFFFF" font-family="Arial,Arial_MSFontService,sans-serif" font-weight="400" font-size="16" transform="translate(433.584 191)">AD</text><text fill="#FFFFFF" font-family="Arial,Arial_MSFontService,sans-serif" font-weight="400" font-size="16" transform="translate(455.751 191)">-</text><text fill="#FFFFFF" font-family="Arial,Arial_MSFontService,sans-serif" font-weight="400" font-size="16" transform="translate(461.084 191)">APARDPFW</text><text fill="#FFFFFF" font-family="Arial,Arial_MSFontService,sans-serif" font-weight="400" font-size="16" transform="translate(550.277 191)">-</text><text fill="#FFFFFF" font-family="Arial,Arial_MSFontService,sans-serif" font-weight="400" font-size="16" transform="translate(555.611 191)">SL</text><path d="M651 495.167C651 485.134 659.134 477 669.167 477L805.833 477C815.866 477 824 485.134 824 495.167L824 567.833C824 577.866 815.866 586 805.833 586L669.167 586C659.134 586 651 577.866 651 567.833Z" stroke="#13501B" stroke-width="2" stroke-miterlimit="8" fill="#3B7D23" fill-rule="evenodd"/><text fill="#FFFFFF" font-family="Arial,Arial_MSFontService,sans-serif" font-weight="400" font-size="16" transform="translate(677.862 538)">EVAN</text><text fill="#FFFFFF" font-family="Arial,Arial_MSFontService,sans-serif" font-weight="400" font-size="16" transform="translate(720.175 538)">-</text><text fill="#FFFFFF" font-family="Arial,Arial_MSFontService,sans-serif" font-weight="400" font-size="16" transform="translate(725.508 538)">ADIN1110</text><path d="M877 148.167C877 138.134 885.134 130 895.167 130L1053.83 130C1063.87 130 1072 138.134 1072 148.167L1072 220.833C1072 230.866 1063.87 239 1053.83 239L895.167 239C885.134 239 877 230.866 877 220.833Z" stroke="#13501B" stroke-width="2" stroke-miterlimit="8" fill="#3B7D23" fill-rule="evenodd"/><text fill="#FFFFFF" font-family="Arial,Arial_MSFontService,sans-serif" font-weight="400" font-size="16" transform="translate(898.522 191)">EVAL</text><text fill="#FFFFFF" font-family="Arial,Arial_MSFontService,sans-serif" font-weight="400" font-size="16" transform="translate(938.169 191)">-</text><text fill="#FFFFFF" font-family="Arial,Arial_MSFontService,sans-serif" font-weight="400" font-size="16" transform="translate(943.502 191)">CN0391</text><text fill="#FFFFFF" font-family="Arial,Arial_MSFontService,sans-serif" font-weight="400" font-size="16" transform="translate(1001.84 191)">-</text><text fill="#FFFFFF" font-family="Arial,Arial_MSFontService,sans-serif" font-weight="400" font-size="16" transform="translate(1007.17 191)">ARDZ</text><path d="M639 148.167C639 138.134 647.134 130 657.167 130L816.833 130C826.866 130 835 138.134 835 148.167L835 220.833C835 230.866 826.866 239 816.833 239L657.167 239C647.134 239 639 230.866 639 220.833Z" stroke="#163E64" stroke-width="2" stroke-miterlimit="8" fill="#0070C0" fill-rule="evenodd"/><text fill="#FFFFFF" font-family="Arial,Arial_MSFontService,sans-serif" font-weight="400" font-size="16" transform="translate(662.092 191)">AD</text><text fill="#FFFFFF" font-family="Arial,Arial_MSFontService,sans-serif" font-weight="400" font-size="16" transform="translate(684.258 191)">-</text><text fill="#FFFFFF" font-family="Arial,Arial_MSFontService,sans-serif" font-weight="400" font-size="16" transform="translate(689.592 191)">APARD32690</text><text fill="#FFFFFF" font-family="Arial,Arial_MSFontService,sans-serif" font-weight="400" font-size="16" transform="translate(787.572 191)">-</text><text fill="#FFFFFF" font-family="Arial,Arial_MSFontService,sans-serif" font-weight="400" font-size="16" transform="translate(792.905 191)">SL</text><path d="M172.667 360 204.407 360 204.407 362 172.667 362ZM174 365 166 361 174 357ZM203.074 357 211.074 361 203.074 365Z" fill="#156082"/><path d="M0-1 266.285-1 266.277 139.952 264.277 139.952 264.285-5.70126e-05 265.285 1 0 1ZM269.285 138.642 265.237 146.618 261.285 138.594Z" fill="#FF0000" transform="matrix(1.83697e-16 1 1 -1.83697e-16 504 239)"/><path d="M333.667 388 366.201 388 366.201 560.101 365.201 559.101 644.232 559.101 644.232 561.101 364.201 561.101 364.201 389 365.201 390 333.667 390ZM335 393 327 389 335 385ZM642.899 556.101 650.899 560.101 642.899 564.101Z" fill="#156082"/><path d="M2.89619e-06-1 29.5833-0.999914 29.5833 1.00009-2.89619e-06 1ZM28.25-3.99992 36.25 0.000104987 28.25 4.00008Z" fill="#7030A0" transform="matrix(-1 0 0 1 363.25 341)"/><path d="M363 184 404.313 184 404.313 186 363 186ZM402.979 181 410.979 185 402.979 189Z" fill="#7030A0"/><path d="M364 184 364 341.85" stroke="#7030A0" stroke-width="2" stroke-miterlimit="8" fill="none" fill-rule="evenodd"/><path d="M6.66667-0.999984 36.1978-0.999911 36.1978 1.00009 6.66666 1.00002ZM7.99999 4.00002 0 0 8.00001-3.99998ZM34.8645-3.99991 42.8645 0.000104987 34.8645 4.00009Z" fill="#156082" transform="matrix(1 0 0 -1 596 185)"/><path d="M841.667 184 869.878 184 869.878 186 841.667 186ZM843 189 835 185 843 181ZM868.545 181 876.545 185 868.545 189Z" fill="#156082"/><path d="M6.68958-0.833131 46.5233 0.162365 46.4734 2.16174 6.63961 1.16624ZM7.89757 4.19862 0 0 8.09744-3.79888ZM45.2654-2.87001 53.1629 1.32861 45.0655 5.12749Z" fill="#156082" transform="matrix(1 0 0 -1 824 531.329)"/><path d="M877 494.167C877 484.134 885.134 476 895.167 476L1053.83 476C1063.87 476 1072 484.134 1072 494.167L1072 566.833C1072 576.866 1063.87 585 1053.83 585L895.167 585C885.134 585 877 576.866 877 566.833Z" stroke="#13501B" stroke-width="2" stroke-miterlimit="8" fill="#3B7D23" fill-rule="evenodd"/><text fill="#FFFFFF" font-family="Arial,Arial_MSFontService,sans-serif" font-weight="400" font-size="16" transform="translate(898.522 537)">EVAL</text><text fill="#FFFFFF" font-family="Arial,Arial_MSFontService,sans-serif" font-weight="400" font-size="16" transform="translate(938.169 537)">-</text><text fill="#FFFFFF" font-family="Arial,Arial_MSFontService,sans-serif" font-weight="400" font-size="16" transform="translate(943.502 537)">CN0391</text><text fill="#FFFFFF" font-family="Arial,Arial_MSFontService,sans-serif" font-weight="400" font-size="16" transform="translate(1001.84 537)">-</text><text fill="#FFFFFF" font-family="Arial,Arial_MSFontService,sans-serif" font-weight="400" font-size="16" transform="translate(1007.17 537)">ARDZ</text><path d="M1101 166.834C1101 161.955 1104.95 158 1109.83 158L1239.17 158C1244.05 158 1248 161.955 1248 166.834L1248 202.166C1248 207.045 1244.05 211 1239.17 211L1109.83 211C1104.95 211 1101 207.045 1101 202.166Z" stroke="#858015" stroke-width="2" stroke-miterlimit="8" fill="#A69F1A" fill-rule="evenodd"/><path d="M1105 162.834C1105 157.955 1108.95 154 1113.83 154L1243.17 154C1248.05 154 1252 157.955 1252 162.834L1252 198.166C1252 203.045 1248.05 207 1243.17 207L1113.83 207C1108.95 207 1105 203.045 1105 198.166Z" stroke="#858015" stroke-width="2" stroke-miterlimit="8" fill="#A69F1A" fill-rule="evenodd"/><path d="M1109 158.667C1109 153.88 1112.88 150 1117.67 150L1247.33 150C1252.12 150 1256 153.88 1256 158.667L1256 193.333C1256 198.12 1252.12 202 1247.33 202L1117.67 202C1112.88 202 1109 198.12 1109 193.333Z" stroke="#858015" stroke-width="2" stroke-miterlimit="8" fill="#A69F1A" fill-rule="evenodd"/><path d="M1113 154.667C1113 149.88 1116.88 146 1121.67 146L1251.33 146C1256.12 146 1260 149.88 1260 154.667L1260 189.333C1260 194.12 1256.12 198 1251.33 198L1121.67 198C1116.88 198 1113 194.12 1113 189.333Z" stroke="#858015" stroke-width="2" stroke-miterlimit="8" fill="#A69F1A" fill-rule="evenodd"/><text fill="#FFFFFF" font-family="Arial,Arial_MSFontService,sans-serif" font-weight="400" font-size="16" transform="translate(1135.39 179)">Thermocouple</text><path d="M1100.03 186.072 1078.66 186.017 1078.67 184.017 1100.04 184.072ZM1079.99 189.021 1072 185 1080.01 181.021Z"/><path d="M1101 512.667C1101 507.88 1104.88 504 1109.67 504L1239.33 504C1244.12 504 1248 507.88 1248 512.667L1248 547.333C1248 552.12 1244.12 556 1239.33 556L1109.67 556C1104.88 556 1101 552.12 1101 547.333Z" stroke="#858015" stroke-width="2" stroke-miterlimit="8" fill="#A69F1A" fill-rule="evenodd"/><path d="M1105 507.834C1105 502.955 1108.95 499 1113.83 499L1243.17 499C1248.05 499 1252 502.955 1252 507.834L1252 543.167C1252 548.045 1248.05 552 1243.17 552L1113.83 552C1108.95 552 1105 548.045 1105 543.167Z" stroke="#858015" stroke-width="2" stroke-miterlimit="8" fill="#A69F1A" fill-rule="evenodd"/><path d="M1109 503.834C1109 498.955 1112.95 495 1117.83 495L1247.17 495C1252.05 495 1256 498.955 1256 503.834L1256 539.167C1256 544.045 1252.05 548 1247.17 548L1117.83 548C1112.95 548 1109 544.045 1109 539.167Z" stroke="#858015" stroke-width="2" stroke-miterlimit="8" fill="#A69F1A" fill-rule="evenodd"/><path d="M1113 499.834C1113 494.955 1116.95 491 1121.83 491L1251.17 491C1256.05 491 1260 494.955 1260 499.834L1260 535.167C1260 540.045 1256.05 544 1251.17 544L1121.83 544C1116.95 544 1113 540.045 1113 535.167Z" stroke="#858015" stroke-width="2" stroke-miterlimit="8" fill="#A69F1A" fill-rule="evenodd"/><text fill="#FFFFFF" font-family="Arial,Arial_MSFontService,sans-serif" font-weight="400" font-size="16" transform="translate(1135.39 524)">Thermocouple</text><path d="M0.00879255-0.999961 21.3774-0.812069 21.3599 1.18785-0.00879255 0.999961ZM20.0705-3.82368 28.0351 0.246509 20.0002 4.17601Z" transform="matrix(-1 0 0 1 1100.04 530)"/><text font-family="Arial,Arial_MSFontService,sans-serif" font-weight="400" font-size="16" transform="translate(175.329 357)">SPI</text><text font-family="Arial,Arial_MSFontService,sans-serif" font-weight="400" font-size="16" transform="translate(605.116 181)">SPI</text><text font-family="Arial,Arial_MSFontService,sans-serif" font-weight="400" font-size="16" transform="translate(843.088 181)">SPI</text><text font-family="Arial,Arial_MSFontService,sans-serif" font-weight="400" font-size="16" transform="translate(837.846 527)">SPI</text><text font-family="Arial,Arial_MSFontService,sans-serif" font-weight="400" font-size="16" transform="translate(552.517 501)">Power</text><text font-family="Arial,Arial_MSFontService,sans-serif" font-weight="400" font-size="16" transform="translate(562.978 556)">T1L</text><text font-family="Arial,Arial_MSFontService,sans-serif" font-weight="400" font-size="16" transform="matrix(-1.83697e-16 -1 1 -1.83697e-16 362.169 312)">T1L + Power</text></g></svg>