<svg width="1280" height="720" xmlns="http://www.w3.org/2000/svg" xmlns:xlink="http://www.w3.org/1999/xlink" overflow="hidden"><g><rect x="0" y="0" width="1280" height="720" fill="#FFFFFF"/><path d="M31 116.501C31 97.9988 45.9987 83 64.5006 83L302.499 83C321.001 83 336 97.9988 336 116.501L336 250.499C336 269.001 321.001 284 302.499 284L64.5006 284C45.9987 284 31 269.001 31 250.499Z" stroke="#000000" stroke-width="2" stroke-miterlimit="8" fill="#404040" fill-rule="evenodd"/><text fill="#FFFFFF" font-family="Arial,Arial_MSFontService,sans-serif" font-weight="400" font-size="16" transform="translate(50.1617 190)">AD</text><text fill="#FFFFFF" font-family="Arial,Arial_MSFontService,sans-serif" font-weight="400" font-size="16" transform="translate(72.3283 190)">-</text><text fill="#FFFFFF" font-family="Arial,Arial_MSFontService,sans-serif" font-weight="400" font-size="16" transform="translate(77.6617 190)">SYNCHRONA14</text><text fill="#FFFFFF" font-family="Arial,Arial_MSFontService,sans-serif" font-weight="400" font-size="16" transform="translate(197.328 190)">-</text><text fill="#FFFFFF" font-family="Arial,Arial_MSFontService,sans-serif" font-weight="400" font-size="16" transform="translate(202.662 190)">EBZ</text><path d="M1073 334C1073 325.164 1080.16 318 1089 318L1239 318C1247.84 318 1255 325.164 1255 334L1255 398C1255 406.836 1247.84 414 1239 414L1089 414C1080.16 414 1073 406.836 1073 398Z" stroke="#042433" stroke-width="2" stroke-miterlimit="8" fill="#156082" fill-rule="evenodd"/><text fill="#FFFFFF" font-family="Arial,Arial_MSFontService,sans-serif" font-weight="400" font-size="16" transform="translate(1127.77 373)">ADALM</text><text fill="#FFFFFF" font-family="Arial,Arial_MSFontService,sans-serif" font-weight="400" font-size="16" transform="translate(1182.77 373)">-</text><text fill="#FFFFFF" font-family="Arial,Arial_MSFontService,sans-serif" font-weight="400" font-size="16" transform="translate(1188.11 373)">PLUTO</text><path d="M385 70.1672C385 57.9246 394.925 48 407.167 48L631.833 48C644.075 48 654 57.9246 654 70.1672L654 158.833C654 171.075 644.075 181 631.833 181L407.167 181C394.925 181 385 171.075 385 158.833Z" stroke="#000000" stroke-width="2" stroke-miterlimit="8" fill="#404040" fill-rule="evenodd"/><text fill="#FFFFFF" font-family="Arial,Arial_MSFontService,sans-serif" font-weight="400" font-size="16" transform="translate(453.933 121)">AD</text><text fill="#FFFFFF" font-family="Arial,Arial_MSFontService,sans-serif" font-weight="400" font-size="16" transform="translate(476.1 121)">-</text><text fill="#FFFFFF" font-family="Arial,Arial_MSFontService,sans-serif" font-weight="400" font-size="16" transform="translate(481.433 121)">JUPITER</text><text fill="#FFFFFF" font-family="Arial,Arial_MSFontService,sans-serif" font-weight="400" font-size="16" transform="translate(548.1 121)">-</text><text fill="#FFFFFF" font-family="Arial,Arial_MSFontService,sans-serif" font-weight="400" font-size="16" transform="translate(553.433 121)">EBZ</text><text fill="#FFFFFF" font-family="Arial,Arial_MSFontService,sans-serif" font-weight="400" font-size="16" transform="translate(610.5 90)">RX1</text><text fill="#FFFFFF" font-family="Arial,Arial_MSFontService,sans-serif" font-weight="400" font-size="16" transform="translate(610 144)">RX</text><text fill="#FFFFFF" font-family="Arial,Arial_MSFontService,sans-serif" font-weight="400" font-size="16" transform="translate(632.166 144)">2</text><text fill="#FFFFFF" font-family="Arial,Arial_MSFontService,sans-serif" font-weight="400" font-size="16" transform="translate(394.8 91)">REFCLK</text><text fill="#FFFFFF" font-family="Arial,Arial_MSFontService,sans-serif" font-weight="400" font-size="16" transform="translate(394.433 144)">MCS</text><text fill="#FFFFFF" font-family="Arial,Arial_MSFontService,sans-serif" font-weight="400" font-size="16" transform="translate(257.833 140)">CH9_P</text><text fill="#FFFFFF" font-family="Arial,Arial_MSFontService,sans-serif" font-weight="400" font-size="16" transform="translate(257.833 172)">CH5_P</text><text fill="#FFFFFF" font-family="Arial,Arial_MSFontService,sans-serif" font-weight="400" font-size="16" transform="translate(257.833 204)">CH10_P</text><text fill="#FFFFFF" font-family="Arial,Arial_MSFontService,sans-serif" font-weight="400" font-size="16" transform="translate(257.833 236)">CH8_P</text><path d="M385 207.334C385 194.999 394.999 185 407.334 185L631.666 185C644.001 185 654 194.999 654 207.334L654 296.666C654 309.001 644.001 319 631.666 319L407.334 319C394.999 319 385 309.001 385 296.666Z" stroke="#000000" stroke-width="2" stroke-miterlimit="8" fill="#404040" fill-rule="evenodd"/><text fill="#FFFFFF" font-family="Arial,Arial_MSFontService,sans-serif" font-weight="400" font-size="16" transform="translate(453.933 258)">AD</text><text fill="#FFFFFF" font-family="Arial,Arial_MSFontService,sans-serif" font-weight="400" font-size="16" transform="translate(476.1 258)">-</text><text fill="#FFFFFF" font-family="Arial,Arial_MSFontService,sans-serif" font-weight="400" font-size="16" transform="translate(481.433 258)">JUPITER</text><text fill="#FFFFFF" font-family="Arial,Arial_MSFontService,sans-serif" font-weight="400" font-size="16" transform="translate(548.1 258)">-</text><text fill="#FFFFFF" font-family="Arial,Arial_MSFontService,sans-serif" font-weight="400" font-size="16" transform="translate(553.433 258)">EBZ</text><text fill="#FFFFFF" font-family="Arial,Arial_MSFontService,sans-serif" font-weight="400" font-size="16" transform="translate(610 226)">RX1</text><text fill="#FFFFFF" font-family="Arial,Arial_MSFontService,sans-serif" font-weight="400" font-size="16" transform="translate(610 280)">RX</text><text fill="#FFFFFF" font-family="Arial,Arial_MSFontService,sans-serif" font-weight="400" font-size="16" transform="translate(632.166 280)">2</text><text fill="#FFFFFF" font-family="Arial,Arial_MSFontService,sans-serif" font-weight="400" font-size="16" transform="translate(394.533 228)">REFCLK</text><text fill="#FFFFFF" font-family="Arial,Arial_MSFontService,sans-serif" font-weight="400" font-size="16" transform="translate(394.533 281)">MCS</text><path d="M686.5 68.1669C686.5 57.3052 695.305 48.5001 706.167 48.5001L784.833 48.5001C795.695 48.5001 804.5 57.3052 804.5 68.1669L804.5 667.833C804.5 678.695 795.695 687.5 784.833 687.5L706.167 687.5C695.305 687.5 686.5 678.695 686.5 667.833Z" stroke="#E2DD00" stroke-width="2.66667" stroke-miterlimit="8" fill="#3B7D23" fill-rule="evenodd"/><text fill="#FFFFFF" font-family="Arial,Arial_MSFontService,sans-serif" font-weight="400" font-size="16" transform="translate(709.946 355)">RECIEVE</text><text fill="#FFFFFF" font-family="Arial,Arial_MSFontService,sans-serif" font-weight="400" font-size="16" transform="translate(707.306 374)">ANTENNA</text><text fill="#FFFFFF" font-family="Arial,Arial_MSFontService,sans-serif" font-weight="400" font-size="16" transform="translate(718.126 393)">ARRAY</text><path d="M878 335C878 326.164 885.164 319 894 319L1022 319C1030.84 319 1038 326.164 1038 335L1038 399C1038 407.836 1030.84 415 1022 415L894 415C885.164 415 878 407.836 878 399Z" stroke="#FCC730" stroke-width="2" stroke-miterlimit="8" fill="#A6A6A6" fill-rule="evenodd"/><text fill="#FFFFFF" font-family="Arial,Arial_MSFontService,sans-serif" font-weight="400" font-size="16" transform="translate(892.686 355)">TRANSMIT</text><text fill="#FFFFFF" font-family="Arial,Arial_MSFontService,sans-serif" font-weight="400" font-size="16" transform="translate(892.686 374)">VIVALDI</text><text fill="#FFFFFF" font-family="Arial,Arial_MSFontService,sans-serif" font-weight="400" font-size="16" transform="translate(892.686 393)">ANTENNA</text><path d="M0-1 26.8166-1 26.8166 48.9541 25.8166 47.9541 44.9665 47.9541 44.9665 49.9541 24.8166 49.9541 24.8166 0 25.8166 1 0 1ZM43.6332 44.9541 51.6332 48.9541 43.6332 52.9541Z" fill="#C00000" transform="matrix(1 0 0 -1 334 132.954)"/><path d="M0-1 26.6332-1 26.6332 28.2876 25.6332 27.2876 44.5998 27.2876 44.5998 29.2876 24.6332 29.2876 24.6332 0 25.6332 1 0 1ZM43.2665 24.2876 51.2665 28.2876 43.2665 32.2876Z" fill="#196B24" transform="matrix(1 0 0 -1 334 165.288)"/><path d="M336 197 361.683 197 361.683 221.579 360.683 220.579 378.7 220.579 378.7 222.579 359.683 222.579 359.683 198 360.683 199 336 199ZM377.367 217.579 385.367 221.579 377.367 225.579Z" fill="#C00000"/><path d="M336 229 361.683 229 361.683 274.579 360.683 273.579 378.7 273.579 378.7 275.579 359.683 275.579 359.683 230 360.683 231 336 231ZM377.367 270.579 385.367 274.579 377.367 278.579Z" fill="#196B24"/><text fill="#FFFFFF" font-family="Arial,Arial_MSFontService,sans-serif" font-weight="400" font-size="16" transform="translate(714.22 91)">PATCH1</text><text fill="#FFFFFF" font-family="Arial,Arial_MSFontService,sans-serif" font-weight="400" font-size="16" transform="translate(714.22 145)">PATCH2</text><text fill="#FFFFFF" font-family="Arial,Arial_MSFontService,sans-serif" font-weight="400" font-size="16" transform="translate(714.053 226)">PATCH3</text><text fill="#FFFFFF" font-family="Arial,Arial_MSFontService,sans-serif" font-weight="400" font-size="16" transform="translate(714.337 280)">PATCH4</text><text fill="#FFFFFF" font-family="Arial,Arial_MSFontService,sans-serif" font-weight="400" font-size="16" transform="translate(1082.97 374)">TX</text><text fill="#FFFFFF" font-family="Arial,Arial_MSFontService,sans-serif" font-weight="400" font-size="16" transform="translate(987.9 374)">SMA</text><path d="M2.93811e-06-1 29.0661-0.999915 29.0661 1.00009-2.93811e-06 1ZM27.7328-3.99992 35.7328 0.000104987 27.7328 4.00008Z" fill="#156082" transform="matrix(-1 0 0 1 1073.73 367)"/><path d="M31 516.5C31 505.731 39.7306 497 50.5004 497L280.5 497C291.269 497 300 505.731 300 516.5L300 594.5C300 605.269 291.269 614 280.5 614L50.5004 614C39.7306 614 31 605.269 31 594.5Z" stroke="#000000" stroke-width="2" stroke-miterlimit="8" fill="#404040" fill-rule="evenodd"/><text fill="#FFFFFF" font-family="Aptos,Aptos_MSFontService,sans-serif" font-weight="400" font-size="16" transform="translate(107.681 561)">ADRV2CRR</text><text fill="#FFFFFF" font-family="Aptos,Aptos_MSFontService,sans-serif" font-weight="400" font-size="16" transform="translate(186.001 561)">-</text><text fill="#FFFFFF" font-family="Aptos,Aptos_MSFontService,sans-serif" font-weight="400" font-size="16" transform="translate(191.501 561)">FMC</text><text fill="#FFFFFF" font-family="Arial,Arial_MSFontService,sans-serif" font-weight="400" font-size="16" transform="translate(244.757 546)">FMC</text><text fill="#FFFFFF" font-family="Arial,Arial_MSFontService,sans-serif" font-weight="400" font-size="16" transform="translate(279.424 546)">1</text><text fill="#FFFFFF" font-family="Arial,Arial_MSFontService,sans-serif" font-weight="400" font-size="16" transform="translate(243.257 578)">FMC2</text><path d="M654.01 83.0001 680.244 83.2658 680.223 85.2657 653.99 84.9999ZM678.941 80.2525 686.9 84.3333 678.86 88.2521Z" fill="#156082"/><path d="M653.026 137 679.663 137.704 679.61 139.704 652.974 139ZM678.409 134.67 686.3 138.88 678.198 142.667Z" fill="#156082"/><path d="M3.16862e-06-1 26.4667-0.999916 26.4667 1.00008-3.16862e-06 1ZM25.1333-3.99992 33.1333 0.000104987 25.1333 4.00008Z" fill="#156082" transform="matrix(1 0 0 -1 653 220)"/><path d="M653 273 679.967 273 679.967 275 653 275ZM678.634 270 686.634 274 678.634 278Z" fill="#156082"/><path d="M349 463.168C349 438.222 369.222 418 394.168 418L608.832 418C633.778 418 654 438.222 654 463.168L654 643.832C654 668.778 633.778 689 608.832 689L394.168 689C369.222 689 349 668.778 349 643.832Z" stroke="#000000" stroke-width="2" stroke-miterlimit="8" fill="#404040" fill-rule="evenodd"/><text fill="#FFFFFF" font-family="Arial,Arial_MSFontService,sans-serif" font-weight="400" font-size="16" transform="translate(428.386 560)">ADRV9009</text><text fill="#FFFFFF" font-family="Arial,Arial_MSFontService,sans-serif" font-weight="400" font-size="16" transform="translate(507.766 560)">-</text><text fill="#FFFFFF" font-family="Arial,Arial_MSFontService,sans-serif" font-weight="400" font-size="16" transform="translate(513.1 560)">ZU11EG</text><text fill="#FFFFFF" font-family="Arial,Arial_MSFontService,sans-serif" font-weight="400" font-size="16" transform="translate(358.583 546)">FMC</text><text fill="#FFFFFF" font-family="Arial,Arial_MSFontService,sans-serif" font-weight="400" font-size="16" transform="translate(393.249 546)">1</text><text fill="#FFFFFF" font-family="Arial,Arial_MSFontService,sans-serif" font-weight="400" font-size="16" transform="translate(358.583 578)">FMC2</text><text fill="#FFFFFF" font-family="Arial,Arial_MSFontService,sans-serif" font-weight="400" font-size="16" transform="translate(610.5 468)">RX1</text><text fill="#FFFFFF" font-family="Arial,Arial_MSFontService,sans-serif" font-weight="400" font-size="16" transform="translate(610 521)">RX</text><text fill="#FFFFFF" font-family="Arial,Arial_MSFontService,sans-serif" font-weight="400" font-size="16" transform="translate(632.166 521)">2</text><text fill="#FFFFFF" font-family="Arial,Arial_MSFontService,sans-serif" font-weight="400" font-size="16" transform="translate(610 603)">RX1</text><text fill="#FFFFFF" font-family="Arial,Arial_MSFontService,sans-serif" font-weight="400" font-size="16" transform="translate(610 656)">RX</text><text fill="#FFFFFF" font-family="Arial,Arial_MSFontService,sans-serif" font-weight="400" font-size="16" transform="translate(632.166 656)">2</text><text fill="#FFFFFF" font-family="Arial,Arial_MSFontService,sans-serif" font-weight="400" font-size="16" transform="translate(714.22 467)">PATCH</text><text fill="#FFFFFF" font-family="Arial,Arial_MSFontService,sans-serif" font-weight="400" font-size="16" transform="translate(766.013 467)">5</text><text fill="#FFFFFF" font-family="Arial,Arial_MSFontService,sans-serif" font-weight="400" font-size="16" transform="translate(715.871 522)">PATCH</text><text fill="#FFFFFF" font-family="Arial,Arial_MSFontService,sans-serif" font-weight="400" font-size="16" transform="translate(767.664 522)">6</text><text fill="#FFFFFF" font-family="Arial,Arial_MSFontService,sans-serif" font-weight="400" font-size="16" transform="translate(714.053 603)">PATCH</text><text fill="#FFFFFF" font-family="Arial,Arial_MSFontService,sans-serif" font-weight="400" font-size="16" transform="translate(765.846 603)">7</text><text fill="#FFFFFF" font-family="Arial,Arial_MSFontService,sans-serif" font-weight="400" font-size="16" transform="translate(713.519 657)">PATCH</text><text fill="#FFFFFF" font-family="Arial,Arial_MSFontService,sans-serif" font-weight="400" font-size="16" transform="translate(765.313 657)">8</text><path d="M0.00761766-0.999971 26.1415-0.800887 26.1262 1.19906-0.00761766 0.999971ZM24.831-3.81096 32.8003 0.249869 24.7701 4.18881Z" fill="#156082" transform="matrix(1 0 0 -1 654 461.25)"/><path d="M653.012 514 681.297 514.335 681.273 516.335 652.988 516ZM679.999 511.319 687.951 515.413 679.904 519.319Z" fill="#156082"/><path d="M0.00100762-0.999999 26.4677-0.973331 26.4657 1.02667-0.00100762 0.999999ZM25.1374-3.97467 33.1333 0.0333858 25.1293 4.02532Z" fill="#156082" transform="matrix(1 0 0 -1 653 597.033)"/><path d="M653.003 649 679.153 649.07 679.147 651.07 652.997 651ZM677.828 646.067 685.817 650.088 677.806 654.067Z" fill="#156082"/><path d="M0.00271055-0.999996 42.0615-0.885993 42.0561 1.114-0.00271055 0.999996ZM40.7363-3.8896 48.7255 0.132073 40.7146 4.11037Z" fill="#156082" transform="matrix(1 0 0 -1 300 539.132)"/><path d="M0.002712-0.999996 42.0356-0.886003 42.0302 1.11399-0.002712 0.999996ZM40.7104-3.88961 48.6995 0.132073 40.6887 4.11036Z" fill="#156082" transform="matrix(1 0 0 -1 300 572.132)"/><path d="M878.7 368.479 870.7 368.479 870.7 366.479 878.7 366.479ZM864.7 368.479 856.7 368.479 856.7 366.479 864.7 366.479ZM850.7 368.479 842.7 368.479 842.7 366.479 850.7 366.479ZM839.85 363.329 839.85 355.329 841.85 355.329 841.85 363.329ZM839.85 349.329 839.85 341.329 841.85 341.329 841.85 349.329ZM839.85 335.329 839.85 327.329 841.85 327.329 841.85 335.329ZM839.85 321.329 839.85 313.329 841.85 313.329 841.85 321.329ZM839.85 307.329 839.85 299.329 841.85 299.329 841.85 307.329ZM839.85 293.329 839.85 285.329 841.85 285.329 841.85 293.329ZM839.85 279.329 839.85 271.329 841.85 271.329 841.85 279.329ZM839.85 265.329 839.85 257.329 841.85 257.329 841.85 265.329ZM839.85 251.329 839.85 243.329 841.85 243.329 841.85 251.329ZM839.85 237.329 839.85 229.329 841.85 229.329 841.85 237.329ZM839.85 223.329 839.85 215.329 841.85 215.329 841.85 223.329ZM839.85 209.329 839.85 201.329 841.85 201.329 841.85 209.329ZM839.85 195.329 839.85 187.329 841.85 187.329 841.85 195.329ZM839.85 181.329 839.85 173.329 841.85 173.329 841.85 181.329ZM839.85 167.329 839.85 159.329 841.85 159.329 841.85 167.329ZM839.85 153.329 839.85 145.329 841.85 145.329 841.85 153.329ZM839.85 139.329 839.85 131.329 841.85 131.329 841.85 139.329ZM839.85 125.329 839.85 117.329 841.85 117.329 841.85 125.329ZM839.85 111.329 839.85 103.329 841.85 103.329 841.85 111.329ZM839.85 97.3294 839.85 89.3294 841.85 89.3294 841.85 97.3294ZM839.179 86 831.179 86 831.179 84 839.179 84ZM825.179 86 817.179 86 817.179 84 825.179 84ZM811.179 86 809.667 86 809.667 84 811.179 84ZM811 89 803 85 811 81Z" fill="#00B0F0"/><path d="M878.7 367.833 870.7 367.833 870.7 365.833 878.7 365.833ZM864.7 367.833 856.7 367.833 856.7 365.833 864.7 365.833ZM850.7 367.833 842.7 367.833 842.7 365.833 850.7 365.833ZM839.85 362.684 839.85 354.684 841.85 354.684 841.85 362.684ZM839.85 348.684 839.85 340.684 841.85 340.684 841.85 348.684ZM839.85 334.684 839.85 326.684 841.85 326.684 841.85 334.684ZM839.85 320.684 839.85 312.684 841.85 312.684 841.85 320.684ZM839.85 306.684 839.85 298.684 841.85 298.684 841.85 306.684ZM839.85 292.684 839.85 284.684 841.85 284.684 841.85 292.684ZM839.85 278.684 839.85 270.684 841.85 270.684 841.85 278.684ZM839.85 264.684 839.85 256.684 841.85 256.684 841.85 264.684ZM839.85 250.684 839.85 242.684 841.85 242.684 841.85 250.684ZM839.85 236.684 839.85 228.684 841.85 228.684 841.85 236.684ZM839.85 222.684 839.85 214.684 841.85 214.684 841.85 222.684ZM839.85 208.684 839.85 200.684 841.85 200.684 841.85 208.684ZM839.85 194.684 839.85 186.684 841.85 186.684 841.85 194.684ZM839.85 180.684 839.85 172.684 841.85 172.684 841.85 180.684ZM839.85 166.684 839.85 158.684 841.85 158.684 841.85 166.684ZM839.85 152.684 839.85 144.684 841.85 144.684 841.85 152.684ZM839.85 138.684 839.85 138 840.85 139 833.533 139 833.533 137 841.85 137 841.85 138.684ZM827.533 139 819.533 139 819.533 137 827.533 137ZM813.533 139 809.667 139 809.667 137 813.533 137ZM811 142 803 138 811 134Z" fill="#00B0F0"/><path d="M878.867 368.139 870.867 368.139 870.867 366.139 878.867 366.139ZM864.867 368.139 856.867 368.139 856.867 366.139 864.867 366.139ZM850.867 368.139 842.867 368.139 842.867 366.139 850.867 366.139ZM839.934 363.072 839.934 355.072 841.934 355.072 841.934 363.072ZM839.934 349.072 839.934 341.072 841.934 341.072 841.934 349.072ZM839.934 335.072 839.934 327.072 841.934 327.072 841.934 335.072ZM839.934 321.072 839.934 313.072 841.934 313.072 841.934 321.072ZM839.934 307.072 839.934 299.072 841.934 299.072 841.934 307.072ZM839.934 293.072 839.934 285.072 841.934 285.072 841.934 293.072ZM839.934 279.072 839.934 271.072 841.934 271.072 841.934 279.072ZM839.934 265.072 839.934 257.072 841.934 257.072 841.934 265.072ZM839.934 251.072 839.934 243.072 841.934 243.072 841.934 251.072ZM839.934 237.072 839.934 229.072 841.934 229.072 841.934 237.072ZM839.934 223.072 839.934 220 840.934 221 836.006 221 836.006 219 841.934 219 841.934 223.072ZM830.006 221 822.006 221 822.006 219 830.006 219ZM816.006 221 809.667 221 809.667 219 816.006 219ZM811 224 803 220 811 216Z" fill="#00B0F0"/><path d="M878.8 368.097 870.8 368.097 870.8 366.097 878.8 366.097ZM864.8 368.097 856.8 368.097 856.8 366.097 864.8 366.097ZM850.8 368.097 842.8 368.097 842.8 366.097 850.8 366.097ZM839.9 362.997 839.9 354.997 841.9 354.997 841.9 362.997ZM839.9 348.997 839.9 340.997 841.9 340.997 841.9 348.997ZM839.9 334.997 839.9 326.997 841.9 326.997 841.9 334.997ZM839.9 320.997 839.9 312.997 841.9 312.997 841.9 320.997ZM839.9 306.997 839.9 298.997 841.9 298.997 841.9 306.997ZM839.9 292.997 839.9 284.997 841.9 284.997 841.9 292.997ZM839.9 278.997 839.9 274 840.9 275 837.897 275 837.897 273 841.9 273 841.9 278.997ZM831.897 275 823.897 275 823.897 273 831.897 273ZM817.897 275 809.897 275 809.897 273 817.897 273ZM811 278 803 274 811 270Z" fill="#00B0F0"/><path d="M0-1 8-1 8 1 0 1ZM14-1 22-1 22 1 14 1ZM28-1 36-1 36 1 28 1ZM38.8499 4.15008 38.8499 12.1501 36.8499 12.1501 36.8499 4.15008ZM38.8499 18.1501 38.8499 26.1501 36.8499 26.1501 36.8499 18.1501ZM38.8499 32.1501 38.8499 40.1501 36.8499 40.1501 36.8499 32.1501ZM38.8499 46.1501 38.8499 54.1501 36.8499 54.1501 36.8499 46.1501ZM38.8499 60.1501 38.8499 68.1501 36.8499 68.1501 36.8499 60.1501ZM38.8499 74.1501 38.8499 82.1501 36.8499 82.1501 36.8499 74.1501ZM38.8499 88.1501 38.8499 93.6905 37.8499 92.6905 40.3095 92.6905 40.3095 94.6905 36.8499 94.6905 36.8499 88.1501ZM46.3095 92.6905 54.3095 92.6905 54.3095 94.6905 46.3095 94.6905ZM60.3095 92.6905 68.3095 92.6905 68.3095 94.6905 60.3095 94.6905ZM67.6998 89.6905 75.6998 93.6905 67.6998 97.6905Z" fill="#00B0F0" transform="matrix(-1 1.22465e-16 1.22465e-16 1 878.7 367)"/><path d="M0-1 8-1 8 1 0 1ZM14-1 22-1 22 1 14 1ZM28-1 36-1 36 1 28 1ZM38.0248 4.97525 38.0248 12.9752 36.0248 12.9752 36.0248 4.97525ZM38.0248 18.9752 38.0248 26.9752 36.0248 26.9752 36.0248 18.9752ZM38.0248 32.9752 38.0248 40.9752 36.0248 40.9752 36.0248 32.9752ZM38.0248 46.9752 38.0248 54.9752 36.0248 54.9752 36.0248 46.9752ZM38.0248 60.9752 38.0248 68.9752 36.0248 68.9752 36.0248 60.9752ZM38.0248 74.9752 38.0248 82.9752 36.0248 82.9752 36.0248 74.9752ZM38.0248 88.9752 38.0248 96.9752 36.0248 96.9752 36.0248 88.9752ZM38.0248 102.975 38.0248 110.975 36.0248 110.975 36.0248 102.975ZM38.0248 116.975 38.0248 124.975 36.0248 124.975 36.0248 116.975ZM38.0248 130.975 38.0248 138.975 36.0248 138.975 36.0248 130.975ZM38.0248 144.975 38.0248 148.166 37.0248 147.166 41.8336 147.166 41.8336 149.166 36.0248 149.166 36.0248 144.975ZM47.8336 147.166 55.8336 147.166 55.8336 149.166 47.8336 149.166ZM61.8336 147.166 67.3827 147.166 67.3827 149.166 61.8336 149.166ZM66.0493 144.166 74.0493 148.166 66.0493 152.166Z" fill="#00B0F0" transform="matrix(-1 1.22465e-16 1.22465e-16 1 878.049 367)"/><path d="M0-1 8-1 8 1 0 1ZM14-1 22-1 22 1 14 1ZM28-1 36-1 36 1 28 1ZM38.9336 4.06638 38.9336 12.0664 36.9336 12.0664 36.9336 4.06638ZM38.9336 18.0664 38.9336 26.0664 36.9336 26.0664 36.9336 18.0664ZM38.9336 32.0664 38.9336 40.0664 36.9336 40.0664 36.9336 32.0664ZM38.9336 46.0664 38.9336 54.0664 36.9336 54.0664 36.9336 46.0664ZM38.9336 60.0664 38.9336 68.0664 36.9336 68.0664 36.9336 60.0664ZM38.9336 74.0664 38.9336 82.0664 36.9336 82.0664 36.9336 74.0664ZM38.9336 88.0664 38.9336 96.0664 36.9336 96.0664 36.9336 88.0664ZM38.9336 102.066 38.9336 110.066 36.9336 110.066 36.9336 102.066ZM38.9336 116.066 38.9336 124.066 36.9336 124.066 36.9336 116.066ZM38.9336 130.066 38.9336 138.066 36.9336 138.066 36.9336 130.066ZM38.9336 144.066 38.9336 152.066 36.9336 152.066 36.9336 144.066ZM38.9336 158.066 38.9336 166.066 36.9336 166.066 36.9336 158.066ZM38.9336 172.066 38.9336 180.066 36.9336 180.066 36.9336 172.066ZM38.9336 186.066 38.9336 194.066 36.9336 194.066 36.9336 186.066ZM38.9336 200.066 38.9336 208.066 36.9336 208.066 36.9336 200.066ZM38.9336 214.066 38.9336 222.066 36.9336 222.066 36.9336 214.066ZM38.9336 228.066 38.9336 229.628 37.9336 228.628 44.3722 228.628 44.3722 230.628 36.9336 230.628 36.9336 228.066ZM50.3722 228.628 58.3722 228.628 58.3722 230.628 50.3722 230.628ZM64.3722 228.628 69.2003 228.628 69.2003 230.628 64.3722 230.628ZM67.867 225.628 75.867 229.628 67.867 233.628Z" fill="#00B0F0" transform="matrix(-1 1.22465e-16 1.22465e-16 1 878.867 367)"/><path d="M0-1 8-1 8 1 0 1ZM14-1 22-1 22 1 14 1ZM28-1 36-1 36 1 28 1ZM39.309 3.69103 39.309 11.691 37.309 11.691 37.309 3.69103ZM39.309 17.691 39.309 25.691 37.309 25.691 37.309 17.691ZM39.309 31.691 39.309 39.691 37.309 39.691 37.309 31.691ZM39.309 45.691 39.309 53.691 37.309 53.691 37.309 45.691ZM39.309 59.691 39.309 67.691 37.309 67.691 37.309 59.691ZM39.309 73.691 39.309 81.691 37.309 81.691 37.309 73.691ZM39.309 87.691 39.309 95.691 37.309 95.691 37.309 87.691ZM39.309 101.691 39.309 109.691 37.309 109.691 37.309 101.691ZM39.309 115.691 39.309 123.691 37.309 123.691 37.309 115.691ZM39.309 129.691 39.309 137.691 37.309 137.691 37.309 129.691ZM39.309 143.691 39.309 151.691 37.309 151.691 37.309 143.691ZM39.309 157.691 39.309 165.691 37.309 165.691 37.309 157.691ZM39.309 171.691 39.309 179.691 37.309 179.691 37.309 171.691ZM39.309 185.691 39.309 193.691 37.309 193.691 37.309 185.691ZM39.309 199.691 39.309 207.691 37.309 207.691 37.309 199.691ZM39.309 213.691 39.309 221.691 37.309 221.691 37.309 213.691ZM39.309 227.691 39.309 235.691 37.309 235.691 37.309 227.691ZM39.309 241.691 39.309 249.691 37.309 249.691 37.309 241.691ZM39.309 255.691 39.309 263.691 37.309 263.691 37.309 255.691ZM39.309 269.691 39.309 277.691 37.309 277.691 37.309 269.691ZM39.0421 281.958 47.0421 281.958 47.0421 283.958 39.0421 283.958ZM53.0421 281.958 61.0421 281.958 61.0421 283.958 53.0421 283.958ZM67.0421 281.958 69.951 281.958 69.951 283.958 67.0421 283.958ZM68.6176 278.958 76.6176 282.958 68.6176 286.958Z" fill="#00B0F0" transform="matrix(-1 1.22465e-16 1.22465e-16 1 878.618 367)"/></g></svg>