<?xml version='1.0' encoding='utf-8'?>
<svg xmlns="http://www.w3.org/2000/svg" id="uuid-30e909ce-19f8-4fc4-a78c-d5531ca0dbae" width="629.8327" height="102.1076" viewBox="74.5707 75.1423 629.8327 102.1076"><path d="M79.5707,171.1422v-90.9999h90.5139v90.9999h-90.5139ZM98.1979,94.3061v65.2905l56.7531-33.3723-56.7531-31.9182Z" fill="#0067b9" /><path d="M303.2224,171.1419h-34.9664v-90.7849h35.1834c26.063,0,41.6997,20.6328,41.6997,46.9121s-13.9004,43.8729-41.9167,43.8729ZM301.7023,95.7776h-14.3336v61.2469h15.4205c20.414,0,23.4542-17.3739,23.238-30.6234,0-10.4256-4.9962-30.6234-24.3249-30.6234Z" fill="#0067b9" /><path d="M250.9438,171.1419l-6.9502-20.1971h-33.4463l-6.0804,20.1971h-18.2447l30.6233-90.9994h18.4607l34.3146,90.9994h-18.6769ZM237.629,132.4831l-11.4442-33.2276-10.0385,33.2276-.8209,5.6473h23.1246l-.8209-5.6473Z" fill="#0067b9" /><rect x="350.0874" y="80.1426" width="19.3297" height="90.9994" fill="#0067b9" /><path d="M389.8792,169.9193l10.7443-88.0262c.1711-.8609.6465-1.2942,1.4241-1.2942h25.5011c7.0762,0,12.6417,1.8996,16.6986,5.6954,4.0569,3.7992,6.0853,8.9325,6.0853,15.4044,0,.7776-.0866,2.1162-.2599,4.0136l-4.9189,40.3889c-.9509,7.595-4.0347,13.6792-9.2557,18.2527-5.2222,4.5746-11.7152,6.8607-19.4824,6.8607h-25.5011c-.8643,0-1.2097-.431-1.0353-1.2953ZM403.6006,160.4702l14.3691-.13c4.0558,0,7.4639-1.4019,10.2266-4.2069,2.7605-2.8038,4.4435-6.5797,5.0489-11.3275l4.659-37.7995c.0855-.6898.13-1.683.13-2.9771,0-3.8836-1.0353-6.9685-3.1071-9.2557-2.0707-2.2851-4.9189-3.4304-8.5426-3.4304h-14.3702c-.3455,0-.5177.1744-.5177.5177l-8.4137,68.0917c0,.3455.1711.5177.5177.5177Z" fill="#101820" /><path d="M495.8981,105.3235h9.4501c.431,0,.7543.13.9709.3888.2144.2588.2788.5621.1944.9065l-7.7672,63.3005c-.1733.8643-.6465,1.2953-1.4241,1.2953h-9.579c-.8631,0-1.2097-.431-1.0364-1.2953l.6476-5.8243c.0855-.2599.0433-.4088-.13-.4532-.1733-.0433-.3022.0644-.3877.3233-1.8985,2.6761-4.1869,4.7245-6.8607,6.1486-2.6761,1.4241-5.611,2.1362-8.8025,2.1362-5.5243,0-9.8389-1.7674-12.9449-5.3077-3.1071-3.537-4.6179-8.2848-4.5312-14.2391-.1744-2.5894.1722-7.3784,1.0364-14.3691.8609-6.904,1.7663-11.9518,2.7172-15.1456,1.4663-5.781,4.1635-10.3766,8.0916-13.787,3.9258-3.4081,8.6936-5.1133,14.3035-5.1133,3.1926,0,5.9331.6699,8.2204,2.0062,2.2862,1.3397,3.9902,3.3459,5.1133,6.0198.0855.2588.1944.3677.3233.3233.13-.0422.2377-.1933.3244-.4521l.6465-5.5666c.1722-.862.6476-1.2953,1.4241-1.2953ZM490.5904,138.334c.691-5.6088.9909-9.8389.9065-12.6861.0844-3.1071-.7332-5.6521-2.4595-7.6383-1.7274-1.984-4.0991-2.9771-7.1195-2.9771-3.1071,0-5.8254.9931-8.1549,2.9771-2.3306,1.9862-3.8836,4.5757-4.6612,7.7672-.691,3.0227-1.3386,7.1651-1.9418,12.4273-.691,5.0933-1.0798,9.278-1.1642,12.5572,0,3.1937.9265,5.7821,2.7827,7.7672,1.854,1.9862,4.3368,2.9771,7.4439,2.9771,3.0193,0,5.651-1.0131,7.896-3.0427,2.2428-2.0262,3.7103-4.5945,4.4013-7.7016.6898-2.7616,1.3797-6.904,2.0707-12.4273Z" fill="#101820" /><path d="M591.3016,105.3235h9.4501c.431,0,.7543.13.9709.3888.2144.2588.2788.5621.1944.9065l-7.7672,63.3005c-.1733.8643-.6465,1.2953-1.4241,1.2953h-9.579c-.8631,0-1.2097-.431-1.0364-1.2953l.6476-5.8243c.0855-.2599.0433-.4088-.13-.4532-.1733-.0433-.3022.0644-.3877.3233-1.8985,2.6761-4.1869,4.7245-6.8607,6.1486-2.6761,1.4241-5.611,2.1362-8.8025,2.1362-5.5243,0-9.8389-1.7674-12.9449-5.3077-3.1071-3.537-4.6179-8.2848-4.5312-14.2391-.1744-2.5894.1722-7.3784,1.0364-14.3691.8609-6.904,1.7663-11.9518,2.7172-15.1456,1.4663-5.781,4.1635-10.3766,8.0916-13.787,3.9258-3.4081,8.6936-5.1133,14.3035-5.1133,3.1926,0,5.9331.6699,8.2204,2.0062,2.2862,1.3397,3.9902,3.3459,5.1133,6.0198.0855.2588.1944.3677.3233.3233.13-.0422.2377-.1933.3244-.4521l.6465-5.5666c.1722-.862.6476-1.2953,1.4241-1.2953ZM585.9938,138.334c.691-5.6088.9909-9.8389.9065-12.6861.0844-3.1071-.7332-5.6521-2.4595-7.6383-1.7274-1.984-4.0991-2.9771-7.1195-2.9771-3.1071,0-5.8254.9931-8.1549,2.9771-2.3306,1.9862-3.8836,4.5757-4.6612,7.7672-.691,3.0227-1.3386,7.1651-1.9418,12.4273-.691,5.0933-1.0798,9.278-1.1642,12.5572,0,3.1937.9265,5.7821,2.7827,7.7672,1.854,1.9862,4.3368,2.9771,7.4439,2.9771,3.0193,0,5.651-1.0131,7.896-3.0427,2.2428-2.0262,3.7103-4.5945,4.4013-7.7016.6898-2.7616,1.3797-6.904,2.0707-12.4273Z" fill="#101820" /><path d="M602.7579,170.7613c-.13-.301-.0644-.6676.1944-1.1009l27.0552-43.366c.0855-.1711.13-.4299.13-.7765l-16.4408-43.366-.1289-.5177c0-.6898.3877-1.0353,1.1642-1.0353h10.2266c.6898,0,1.1653.3033,1.4241.9065l11.7796,32.7506c0,.1744.1078.2588.3244.2588.2144,0,.3666-.0844.4532-.2588l19.5468-32.7506c.3444-.6032.862-.9065,1.553-.9065h10.2266c.431,0,.7121.1511.842.4532.1289.3033.0644.6687-.1944,1.0998l-27.0552,43.496c-.0866.2588-.0866.5177,0,.7765l16.3109,43.2361.13.5188c0,.691-.3888,1.0353-1.1664,1.0353h-10.0967c-.7765,0-1.2097-.3022-1.2942-.9065l-11.6508-32.7506c-.0866-.1722-.2166-.2588-.3888-.2588-.1733,0-.3022.0866-.3877.2588l-19.9356,32.7506c-.2588.6043-.7765.9065-1.5541.9065h-10.2266c-.4321,0-.711-.15-.8409-.4532Z" fill="#101820" /><path d="M674.7887,81.7539v-.7565c0-.2649.1466-.3982.4388-.3982h10.1167c.291,0,.4377.1333.4377.3982v.7565c0,.2655-.1466.3982-.4377.3982h-4.0291c-.1178,0-.1755.0533-.1755.1589v10.7272c0,.2655-.1466.3982-.4377.3982h-1.052c-.2922,0-.4377-.1327-.4377-.3982v-10.7272c0-.1055-.0589-.1589-.1755-.1589h-3.8092c-.2922,0-.4388-.1327-.4388-.3982ZM697.8704,80.5992h1.0942c.2922,0,.4388.1333.4388.3982v12.0408c0,.2655-.1466.3982-.4388.3982h-1.0509c-.2922,0-.4377-.1327-.4377-.3982v-9.2142c0-.0794-.03-.1322-.0878-.1594-.0589-.0261-.1022,0-.1311.08l-3.0216,4.1402c-.1178.1594-.2922.2394-.5254.2394h-.22c-.2333,0-.4088-.08-.5254-.2394l-3.0216-4.1402c-.0289-.08-.0733-.1061-.1311-.08-.0589.0272-.0878.08-.0878.1594v9.2142c0,.2655-.1466.3982-.4377.3982h-1.0953c-.2922,0-.4377-.1327-.4377-.3982v-12.0408c0-.2649.1455-.3982.4377-.3982h1.1386c.2044,0,.3788.0794.5254.2388l3.5914,4.9767c.0289.0267.0722.04.1311.04s.1022-.0133.1322-.04l3.6348-4.9767c.1455-.1594.321-.2388.5254-.2388Z" fill="#101820" /><path d="M534.0627,104.7604c0,.1744.0422.3033.1294.3888.085.0866.1716.1289.2588.1289h11.262c.862,0,1.2075.4332,1.0359,1.2953l-.7765,6.9896c-.1744.8643-.6476,1.2953-1.4241,1.2953h-11.2625c-.3455,0-.5177.1733-.5177.5177l-4.4013,35.4689c-.0872.6054-.1294,1.3819-.1294,2.3306,0,2.6761.6026,4.5534,1.8124,5.631,1.2075,1.0798,3.1065,1.6185,5.696,1.6185h2.4595c.8615,0,1.2075.4321,1.0353,1.2942l-1.0353,8.1549c0,.8643-.4332,1.2953-1.2947,1.2953l-4.9189.1289c-5.265,0-9.2557-.8831-11.974-2.6539-2.7188-1.7674-4.078-5.0256-4.078-9.7734,0-.7765.085-2.0262.2588-3.7536l4.9195-39.7413c0-.3444-.1744-.5177-.5182-.5177h-6.0842c-.7765,0-1.1647-.431-1.1647-1.2953l.9059-6.9896c.1722-.862.6476-1.2953,1.4241-1.2953h6.2136c.085,0,.1944-.0422.3238-.1289.1294-.0855.1938-.2144.1938-.3888l.5685-4.7516,1.7629-14.9801c.1497-1.2528,1.2519-2.4733,2.4495-2.7123l7.6406-1.525c1.1976-.239,2.058.5908,1.9121,1.844l-2.1989,18.5252-.4839,3.5999ZM524.7434,85.0287c.1497-1.2528,1.2519-2.4733,2.4495-2.7123l7.6406-1.525c1.1976-.239,2.058.5908,1.9121,1.844" fill="#101820" /></svg>